<?xml version="1.0" encoding="utf-8"?>
<!-- Generator: Adobe Illustrator 15.0.0, SVG Export Plug-In  -->
<!DOCTYPE svg PUBLIC "-//W3C//DTD SVG 1.1//EN" "http://www.w3.org/Graphics/SVG/1.1/DTD/svg11.dtd" [
	<!ENTITY ns_flows "http://ns.adobe.com/Flows/1.0/">
]>
<svg version="1.1"
	 xmlns="http://www.w3.org/2000/svg" xmlns:xlink="http://www.w3.org/1999/xlink" xmlns:a="http://ns.adobe.com/AdobeSVGViewerExtensions/3.0/"
	 x="0px" y="0px" width="275px" height="64px" viewBox="-0.122 -0.5 275 64"
	 overflow="visible" enable-background="new -0.122 -0.5 275 64" xml:space="preserve">
<defs>
</defs>
<path fill="#014D85" d="M116.922,28.528h1.578v-8.074h-6.002v-2.943h-1.594v2.943h-5.954v8.156h1.546v-1.036h4.408v5.361h1.594
	v-5.361h4.424V28.528z M110.904,26.029h-4.408v-4.045h4.408V26.029z M116.922,26.029h-4.424v-4.045h4.424V26.029z"/>
<path fill="#014D85" d="M124.73,21.763l0.164,0.174l0.497-0.507v0.816h11v-1.298h-4.834v-0.79h3.831V18.86h-3.831v-1.3h-1.513v1.3
	h-3.749v1.298h3.749v0.79h-4.181l0.133-0.136l-0.165-0.161c-0.64-0.622-1.899-1.51-2.994-2.108l-0.148-0.081l-1.065,1.017
	l0.262,0.154C122.945,20.255,124.168,21.171,124.73,21.763"/>
<path fill="#014D85" d="M136.289,26.585l-1.228-0.81l-0.083,0.069V22.74h-8.205v3.848h2.538c-0.927,0.858-2.261,1.641-3.821,2.235
	l-0.347,0.134l0.274,0.251c0.174,0.16,0.49,0.583,0.618,0.789l0.105,0.172l0.184-0.082c1.045-0.467,2.486-1.225,3.688-2.269v3.095
	h1.496V27.96c1.169,0.688,2.581,1.596,3.386,2.288l0.16,0.138l0.991-0.966l-0.196-0.164c-0.495-0.412-1.148-0.853-1.694-1.198
	c0.598-0.355,1.293-0.795,1.888-1.275L136.289,26.585z M133.448,25.306h-5.197v-1.283h5.197V25.306z M131.598,26.587h2.462
	c-0.35,0.263-0.723,0.526-1.064,0.751C132.495,27.054,132.018,26.798,131.598,26.587"/>
<path fill="#014D85" d="M130.57,31.291c-1.854,0-3.124-0.126-4.141-0.773c-0.314-0.189-0.566-0.365-0.789-0.521
	c-0.187-0.13-0.353-0.248-0.514-0.339v-6.391h-3.617v1.48h2.089V29.7c-0.633,0.323-1.375,0.957-2.259,1.93l-0.13,0.141l1.027,1.331
	l0.181-0.242c0.367-0.49,1.485-1.979,2.019-1.979c0.206,0,0.581,0.277,0.944,0.545c0.173,0.129,0.352,0.261,0.547,0.391
	c1.268,0.778,2.76,0.938,4.609,0.938c1.764,0,4.575-0.082,5.675-0.164l0.192-0.015l0.019-0.192c0.03-0.301,0.17-0.784,0.306-1.054
	l0.187-0.374l-0.416,0.042C134.718,31.173,132.336,31.291,130.57,31.291"/>
<path fill="#014D85" d="M141.339,25.365l0.191,0.165l0.875-1.233l-0.158-0.137c-0.571-0.489-1.758-1.183-2.756-1.615l-0.162-0.07
	l-0.879,1.123l0.261,0.123C139.624,24.153,140.753,24.86,141.339,25.365"/>
<path fill="#014D85" d="M151.714,32.177c0.252-0.308,0.432-0.804,0.575-1.594h1.286v-1.43h-1.107
	c0.074-0.681,0.139-1.426,0.188-2.22h1.382V25.47h-1.304c0.047-0.822,0.092-1.677,0.136-2.616v-0.772h-8.103
	c0.236-0.378,0.469-0.78,0.691-1.201h8.182v-1.463h-7.505c0.183-0.423,0.351-0.884,0.49-1.347l0.069-0.232l-1.496-0.374
	l-0.065,0.206c-0.642,2.033-1.636,3.858-2.726,5.01l-0.215,0.225l0.276,0.138c0.248,0.123,0.691,0.424,0.901,0.585l0.176,0.136
	l0.143-0.172c0.303-0.366,0.604-0.783,0.901-1.237c-0.085,0.872-0.212,1.918-0.376,3.114h-1.707v1.459l-1.066-0.795l-0.104,0.296
	c-0.636,1.809-1.562,3.994-2.256,5.313l-0.099,0.188l1.373,0.861l0.108-0.239c0.722-1.599,1.563-3.697,2.146-5.347l0.057-0.158
	l-0.153-0.115h1.491c-0.171,1.254-0.37,2.471-0.553,3.374l-0.059,0.276h7.348c-0.105,0.447-0.209,0.638-0.28,0.718l-0.013,0.016
	c-0.08,0.106-0.146,0.138-0.426,0.138c-0.324,0-1.102-0.017-1.955-0.082l-0.479-0.036l0.272,0.395
	c0.123,0.179,0.217,0.482,0.258,0.834l0.021,0.19l0.192,0.013c0.527,0.033,1.046,0.051,1.477,0.051c0.252,0,0.475-0.006,0.648-0.019
	C150.958,32.75,151.365,32.624,151.714,32.177 M149.904,25.062c-0.293-0.439-0.877-1.04-1.492-1.55h2.936
	c-0.027,0.74-0.056,1.374-0.092,1.958h-1.539l0.311-0.223L149.904,25.062z M147.039,23.908c0.598,0.462,1.225,1.072,1.615,1.562
	h-2.953c0.068-0.511,0.133-1.017,0.195-1.51l0.057-0.448h1.135l-0.309,0.195L147.039,23.908z M149.749,28.898l-0.127-0.186
	c-0.365-0.543-1.062-1.235-1.694-1.779h3.246c-0.064,0.861-0.132,1.591-0.203,2.22h-1.582L149.749,28.898z M146.767,26.933
	l-0.408,0.253l0.246,0.204c0.642,0.528,1.324,1.222,1.75,1.763h-3.189c0.097-0.599,0.201-1.316,0.324-2.22H146.767z"/>
<path fill="#014D85" d="M142.324,20.625l0.183,0.163l0.947-1.209l-0.175-0.142c-0.627-0.512-1.873-1.234-2.898-1.678l-0.156-0.067
	l-0.927,1.096l0.267,0.13C140.478,19.359,141.719,20.088,142.324,20.625"/>
<path fill="#014D85" d="M171,32.198l0.021-0.191c0.029-0.269,0.168-0.751,0.291-1.012l0.176-0.374l-0.409,0.047
	c-1.623,0.186-4.037,0.311-6.009,0.311c-1.881,0-3.17-0.131-4.187-0.804c-0.317-0.197-0.562-0.389-0.774-0.558
	c-0.148-0.118-0.281-0.224-0.416-0.313v-5.33h-3.748v1.495h2.234v3.782c-0.626,0.3-1.351,0.948-2.263,2.022l-0.119,0.141l0.989,1.32
	l0.183-0.258c0.438-0.62,1.47-2.073,1.968-2.073c0.144,0,0.444,0.247,0.713,0.464c0.209,0.172,0.447,0.367,0.705,0.534
	c1.239,0.825,2.717,0.991,4.697,0.991c1.502,0,4.569-0.096,5.756-0.182L171,32.198z"/>
<path fill="#014D85" d="M164.676,30.862h1.529v-1.348h4.687V28.2h-4.687v-0.626h3.698v-5.08h-3.698v-0.61h3.206V21.49h1.348v-3.371
	h-10.557v3.371h1.218v0.394h3.256v0.61h-3.585v5.08h3.585V28.2h-4.474v1.314h4.474V30.862z M166.206,23.727h2.233v0.708h-2.233
	V23.727z M166.206,25.633h2.233v0.708h-2.233V25.633z M162.504,23.727h2.172v0.708h-2.172V23.727z M164.676,26.341h-2.172v-0.708
	h2.172V26.341z M169.263,19.435v1.152h-3.058v-0.904h-1.529v0.904h-3.026v-1.152H169.263z"/>
<path fill="#014D85" d="M158.601,21.99l0.115,0.223l1.33-0.84l-0.102-0.189c-0.459-0.864-1.508-2.064-2.346-2.869l-0.123-0.119
	l-1.3,0.745l0.214,0.212C157.262,20.026,158.213,21.247,158.601,21.99"/>
<path fill="#014D85" d="M175.81,25.137l0.191,0.159l0.893-1.267l-0.166-0.136c-0.66-0.534-1.889-1.175-2.752-1.545l-0.164-0.07
	l-0.896,1.16l0.265,0.12C174.105,23.98,175.234,24.658,175.81,25.137"/>
<path fill="#014D85" d="M185.954,29.415v-2.76c0.514,0.568,1.062,1.044,1.603,1.393l0.188,0.12l0.127-0.184
	c0.172-0.25,0.505-0.611,0.728-0.788l0.272-0.219l-0.31-0.164c-1.064-0.568-2.123-1.662-2.83-2.905h2.871v-1.463h-2.961v-1.563
	h2.516v-1.464h-2.516v-1.874h-1.527v1.874h-2.896v-1.874h-1.513v1.874h-2.252v0.092c-0.595-0.514-1.688-1.216-2.517-1.614
	l-0.158-0.077l-0.941,1.11l0.252,0.134c0.864,0.455,1.9,1.175,2.415,1.672l0.183,0.177l0.768-0.972v0.942h2.252v1.563h-2.941v1.463
	h2.879c-0.684,1.269-1.738,2.491-2.789,3.218l-1.052-0.769l-0.108,0.279c-0.705,1.808-1.594,3.787-2.207,4.924l-0.103,0.186
	l1.388,0.9l0.11-0.238c0.695-1.493,1.438-3.251,1.979-4.675c0.192,0.187,0.416,0.445,0.554,0.635l0.134,0.182l0.186-0.13
	c0.537-0.38,1.086-0.9,1.609-1.521v4.014c0,1.236,0.361,1.823,2.418,1.823h3.896c1.656,0,2.004-0.692,2.152-2.646l0.014-0.196
	l-0.189-0.046c-0.25-0.058-0.617-0.194-0.838-0.355l-0.344-0.252l-0.021,0.426c-0.086,1.689-0.246,1.689-0.84,1.689h-3.799
	c-1.018,0-1.018-0.103-1.018-0.444v-1.498H185.954L185.954,29.415z M184.146,23.908c0.242,0.522,0.51,1.008,0.799,1.447h-4.469
	c0.301-0.48,0.56-0.972,0.764-1.447H184.146z M181.218,20.882h2.896v1.563h-2.896V20.882z M184.59,28.101h-3.813V26.67h3.813V28.101
	z"/>
<path fill="#014D85" d="M191.81,32.539h1.578v-1.413h9.391v1.332h1.627V19.255H191.81V32.539z M202.777,29.564h-9.39v-8.749h9.39
	V29.564z"/>
<path fill="#014D85" d="M211.164,25.287v7.663h1.529v-3.255h6.578v1.596c0,0.078-0.015,0.099-0.015,0.099s-0.028,0.025-0.151,0.033
	l-0.176,0.001c-0.412,0.002-1.273,0.008-2.23-0.034l-0.381-0.016l0.162,0.344c0.137,0.29,0.297,0.712,0.344,1.007l0.029,0.194h0.196
	c1.479,0,2.375,0,2.922-0.194c0.687-0.245,0.827-0.743,0.827-1.417v-8.6h-7.822c0.282-0.501,0.555-1.027,0.801-1.546h8.963v-1.496
	h-8.33c0.188-0.499,0.367-1.023,0.542-1.594l0.073-0.236l-1.562-0.35l-0.057,0.216c-0.164,0.641-0.385,1.302-0.654,1.964h-4.745
	v1.496h4.067c-1.135,2.223-2.633,4.013-4.346,5.188l-0.24,0.163l0.214,0.195c0.204,0.189,0.534,0.566,0.666,0.788l0.128,0.213
	l0.201-0.143C209.564,26.952,210.39,26.188,211.164,25.287 M212.693,24.154h6.578v1.333h-6.578V24.154z M219.271,28.282h-6.576
	v-1.381h6.576V28.282z"/>
<path fill="#014D85" d="M230.158,28.715c0.597-0.42,0.723-1.344,0.723-2.045c0-1.315-0.47-2.482-1.477-3.66
	c0.453-1.075,0.994-2.46,1.608-4.122l0.067-0.177l-0.958-0.579l-0.229,0.069h-4.143V32.95h1.445V19.665h1.982
	c-0.333,0.991-0.8,2.299-1.271,3.413l-0.061,0.136l0.102,0.109c0.998,1.093,1.484,2.155,1.484,3.248c0,0.493-0.1,0.868-0.269,0.984
	c-0.095,0.07-0.259,0.091-0.417,0.104c-0.264,0.033-0.631,0.01-0.957-0.018l-0.467-0.038l0.256,0.393
	c0.146,0.228,0.244,0.613,0.259,0.86l0.015,0.196l0.194,0.018c0.407,0.037,0.834,0.03,1.163-0.017
	C229.576,29.015,229.904,28.897,230.158,28.715"/>
<path fill="#014D85" d="M234.254,25.847c0.918,3.496,2.62,5.839,5.063,6.967l0.187,0.086l0.106-0.174
	c0.186-0.306,0.5-0.703,0.699-0.89l0.267-0.246l-0.337-0.136c-1.187-0.477-2.202-1.288-3.024-2.412
	c0.71-0.425,1.843-1.143,2.742-1.902l0.188-0.157l-1.051-1.097l-0.166,0.154c-0.564,0.524-1.498,1.228-2.426,1.832
	c-0.309-0.58-0.576-1.248-0.811-2.026h3.377v-7.596h-7.631v12.464c0,0.445-0.15,0.748-0.447,0.896l-0.252,0.127l0.173,0.221
	c0.166,0.21,0.382,0.615,0.455,0.848l0.092,0.297l0.258-0.176c0.286-0.195,0.833-0.377,4.142-1.284l0.194-0.054l-0.028-0.2
	c-0.029-0.207-0.063-0.635-0.047-0.942l0.017-0.31l-3.025,0.744v-5.035H234.254z M232.968,19.681h4.571v1.645h-4.571V19.681z
	 M237.54,24.418h-4.571v-1.711h4.571V24.418z"/>
<path fill="#014D85" d="M243.443,25.496l0.151,0.131l0.149-0.133c1.89-1.684,3.602-4.178,4.695-6.843l0.103-0.24l-1.584-0.436
	l-0.077,0.191c-0.984,2.476-2.648,4.795-4.449,6.201l-0.262,0.205l0.281,0.174C242.726,24.911,243.195,25.285,243.443,25.496"/>
<path fill="#014D85" d="M256.363,25.51l0.186,0.163l0.148-0.194c0.234-0.301,0.621-0.694,0.882-0.896l0.233-0.182l-0.233-0.182
	c-1.714-1.334-3.812-3.992-4.884-6.184l-0.094-0.191l-1.486,0.582l0.115,0.225C252.468,21.093,254.578,23.914,256.363,25.51"/>
<path fill="#014D85" d="M256.916,31.903c-0.775-1.412-2.418-3.693-3.989-5.546l-0.112-0.133l-1.431,0.656l0.187,0.229
	c0.488,0.607,1.183,1.496,1.855,2.446l-6.98,0.392c1.759-2.15,3.299-4.724,4.306-6.554l0.118-0.217l-1.579-0.722l-0.099,0.202
	c-1.311,2.685-3.293,5.544-3.953,6.271c-0.532,0.663-0.992,1.236-1.338,1.318l-0.28,0.068l0.13,0.259
	c0.143,0.283,0.352,0.877,0.412,1.095l0.068,0.241l0.232-0.09c0.507-0.193,1.488-0.258,9.139-0.761l0.824-0.055
	c0.5,0.749,0.86,1.38,1.034,1.699l0.11,0.201l1.457-0.797L256.916,31.903z"/>
<path fill="#014D85" d="M262.914,29.943h6.561v-5.624h-8.09v6.84h1.529V29.943z M267.947,28.512h-5.032v-2.764h5.032V28.512z"/>
<rect x="260.299" y="21.458" fill="#014D85" width="10.358" height="1.446"/>
<path fill="#014D85" d="M272.089,31.027c0,0.119-0.016,0.147-0.014,0.146c-0.002,0.001-0.033,0.019-0.162,0.019
	c-0.326,0.015-1.438,0.034-2.61-0.017l-0.397-0.017l0.186,0.354c0.169,0.323,0.309,0.821,0.354,1.128l0.029,0.194h0.198
	c1.483,0,2.502-0.015,3.12-0.228c0.712-0.259,0.859-0.818,0.859-1.581V18.596h-13.451v1.514h11.889V31.027L272.089,31.027z"/>
<path fill="#014D85" d="M110.091,44.529c-0.424,0.634-1.04,0.949-1.85,0.949c-0.879,0-1.542-0.301-1.985-0.901
	c-0.444-0.603-0.665-1.388-0.665-2.354c0-1.182,0.245-2.059,0.737-2.631c0.491-0.572,1.136-0.857,1.934-0.857
	c0.655,0,1.164,0.154,1.527,0.467c0.363,0.311,0.604,0.732,0.726,1.265h1.091c-0.064-0.7-0.38-1.327-0.951-1.877
	c-0.57-0.552-1.372-0.827-2.405-0.827c-1.212,0-2.162,0.424-2.851,1.271c-0.637,0.779-0.955,1.779-0.955,2.998
	c0,1.604,0.424,2.792,1.272,3.561c0.645,0.583,1.441,0.872,2.39,0.872c1.1,0,1.974-0.354,2.623-1.062
	c0.54-0.588,0.859-1.316,0.955-2.188h-1.09C110.483,43.756,110.316,44.195,110.091,44.529"/>
<path fill="#014D85" d="M116.694,37.761c-1.395,0-2.447,0.511-3.16,1.527c-0.554,0.796-0.832,1.751-0.832,2.868
	c0,1.236,0.325,2.259,0.972,3.068c0.728,0.84,1.727,1.26,2.997,1.26c1.36,0,2.408-0.479,3.143-1.438
	c0.626-0.817,0.939-1.844,0.939-3.076c0-1.14-0.274-2.073-0.821-2.806C119.231,38.229,118.152,37.761,116.694,37.761 M118.945,44.43
	c-0.44,0.707-1.153,1.061-2.139,1.061c-1.038,0-1.789-0.313-2.252-0.941c-0.463-0.628-0.693-1.4-0.693-2.314
	c0-1.145,0.269-2.01,0.809-2.598c0.539-0.587,1.236-0.881,2.091-0.881c0.881,0,1.575,0.297,2.083,0.889
	c0.508,0.594,0.762,1.377,0.762,2.348C119.606,42.91,119.385,43.723,118.945,44.43"/>
<path fill="#014D85" d="M127.421,42.252c-0.294-0.223-0.712-0.396-1.253-0.521l-1.122-0.266c-0.755-0.181-1.24-0.329-1.454-0.449
	c-0.327-0.188-0.491-0.483-0.491-0.888c0-0.368,0.139-0.69,0.416-0.969c0.276-0.276,0.731-0.416,1.363-0.416
	c0.784,0,1.338,0.217,1.666,0.647c0.176,0.235,0.291,0.574,0.344,1.017h1.052c0-0.919-0.295-1.587-0.883-2.005
	c-0.589-0.418-1.305-0.627-2.148-0.627c-0.915,0-1.623,0.238-2.123,0.714c-0.499,0.478-0.749,1.085-0.749,1.827
	c0,0.688,0.254,1.203,0.762,1.545c0.294,0.201,0.796,0.384,1.504,0.547l1.084,0.254c0.588,0.139,1.019,0.302,1.296,0.488
	c0.272,0.191,0.408,0.513,0.408,0.961c0,0.602-0.321,1.018-0.964,1.248c-0.332,0.121-0.701,0.182-1.105,0.182
	c-0.903,0-1.533-0.273-1.89-0.821c-0.187-0.292-0.294-0.673-0.319-1.141h-1.051c-0.012,0.892,0.266,1.599,0.833,2.118
	c0.566,0.525,1.351,0.785,2.352,0.785c0.859,0,1.613-0.194,2.261-0.588c0.649-0.395,0.974-1.047,0.974-1.961
	C128.186,43.198,127.931,42.639,127.421,42.252"/>
<path fill="#014D85" d="M135.041,44.529c-0.423,0.634-1.04,0.949-1.85,0.949c-0.88,0-1.542-0.301-1.985-0.901
	c-0.444-0.603-0.666-1.388-0.666-2.354c0-1.182,0.246-2.059,0.737-2.631c0.492-0.572,1.137-0.857,1.935-0.857
	c0.656,0,1.164,0.154,1.527,0.467c0.362,0.311,0.604,0.732,0.726,1.265h1.09c-0.063-0.7-0.379-1.327-0.95-1.877
	c-0.57-0.552-1.373-0.827-2.405-0.827c-1.212,0-2.162,0.424-2.851,1.271c-0.637,0.779-0.955,1.779-0.955,2.998
	c0,1.604,0.423,2.792,1.272,3.561c0.645,0.583,1.441,0.872,2.39,0.872c1.1,0,1.974-0.354,2.622-1.062
	c0.541-0.588,0.86-1.316,0.956-2.188h-1.091C135.433,43.756,135.265,44.195,135.041,44.529"/>
<path fill="#014D85" d="M141.642,37.761c-1.394,0-2.445,0.511-3.158,1.527c-0.555,0.796-0.833,1.751-0.833,2.868
	c0,1.236,0.325,2.259,0.973,3.068c0.729,0.84,1.727,1.26,2.998,1.26c1.359,0,2.406-0.479,3.141-1.438
	c0.627-0.817,0.94-1.844,0.94-3.076c0-1.14-0.275-2.073-0.822-2.806C144.179,38.229,143.101,37.761,141.642,37.761 M143.894,44.43
	c-0.438,0.707-1.152,1.061-2.139,1.061c-1.038,0-1.789-0.313-2.252-0.941s-0.693-1.4-0.693-2.314c0-1.145,0.271-2.01,0.811-2.598
	c0.54-0.587,1.236-0.881,2.091-0.881c0.88,0,1.575,0.297,2.082,0.889c0.508,0.594,0.763,1.377,0.763,2.348
	C144.554,42.91,144.334,43.723,143.894,44.43"/>
<path fill="#014D85" d="M155.57,42.252c-0.295-0.223-0.713-0.396-1.254-0.521l-1.121-0.266c-0.756-0.181-1.24-0.329-1.455-0.449
	c-0.326-0.188-0.489-0.483-0.489-0.888c0-0.368,0.138-0.69,0.414-0.969c0.276-0.276,0.731-0.416,1.364-0.416
	c0.781,0,1.338,0.217,1.664,0.647c0.177,0.235,0.291,0.574,0.346,1.017h1.053c0-0.919-0.297-1.587-0.885-2.005
	c-0.59-0.418-1.305-0.627-2.146-0.627c-0.916,0-1.623,0.238-2.123,0.714c-0.498,0.478-0.748,1.085-0.748,1.827
	c0,0.688,0.254,1.203,0.762,1.545c0.294,0.201,0.795,0.384,1.503,0.547l1.084,0.254c0.588,0.139,1.021,0.302,1.297,0.488
	c0.271,0.191,0.407,0.513,0.407,0.961c0,0.602-0.319,1.018-0.965,1.248c-0.33,0.121-0.698,0.182-1.104,0.182
	c-0.902,0-1.533-0.273-1.891-0.821c-0.188-0.292-0.295-0.673-0.318-1.141h-1.052c-0.011,0.892,0.266,1.599,0.833,2.118
	c0.566,0.525,1.351,0.785,2.354,0.785c0.857,0,1.61-0.194,2.26-0.588c0.648-0.395,0.973-1.047,0.973-1.961
	C156.331,43.198,156.078,42.639,155.57,42.252"/>
<polygon fill="#014D85" points="163.314,41.398 159.068,41.398 159.068,37.986 157.941,37.986 157.941,46.245 159.068,46.245 
	159.068,42.381 163.314,42.381 163.314,46.245 164.445,46.245 164.445,37.986 163.314,37.986 "/>
<rect x="166.48" y="37.984" fill="#014D85" width="1.131" height="8.26"/>
<path fill="#014D85" d="M173.228,37.986h-3.695v8.259h1.119v-3.492h2.576c0.827,0,1.44-0.239,1.842-0.716
	c0.401-0.479,0.602-1.039,0.602-1.686c0-0.75-0.225-1.33-0.675-1.744C174.547,38.193,173.958,37.986,173.228,37.986 M174.074,41.488
	c-0.311,0.214-0.715,0.318-1.215,0.318h-2.209v-2.859h2.209c0.43,0,0.766,0.059,1.013,0.175c0.444,0.217,0.669,0.63,0.669,1.235
	C174.541,40.896,174.385,41.275,174.074,41.488"/>
<path fill="#014D85" d="M180.904,37.986h-3.693v8.259h1.118v-3.492h2.579c0.826,0,1.439-0.239,1.84-0.716
	c0.4-0.479,0.604-1.039,0.604-1.686c0-0.75-0.227-1.33-0.676-1.744C182.228,38.193,181.637,37.986,180.904,37.986 M181.752,41.488
	c-0.31,0.214-0.714,0.318-1.213,0.318h-2.211v-2.859h2.211c0.427,0,0.765,0.059,1.01,0.175c0.446,0.217,0.67,0.63,0.67,1.235
	C182.219,40.896,182.066,41.275,181.752,41.488"/>
<rect x="185.036" y="37.984" fill="#014D85" width="1.131" height="8.26"/>
<polygon fill="#014D85" points="193.417,44.659 189.299,37.986 187.982,37.986 187.982,46.245 189.05,46.245 189.05,39.58 
	193.23,46.245 194.484,46.245 194.484,37.986 193.417,37.986 "/>
<path fill="#014D85" d="M199.787,42.752h2.587c-0.013,0.968-0.257,1.668-0.735,2.102c-0.48,0.432-1.086,0.647-1.816,0.647
	c-0.955,0-1.643-0.31-2.063-0.926c-0.423-0.614-0.634-1.414-0.634-2.396c0-1.138,0.255-1.992,0.768-2.565
	c0.512-0.572,1.143-0.859,1.891-0.859c0.632,0,1.154,0.138,1.568,0.414c0.416,0.272,0.688,0.715,0.82,1.315h1.107
	c-0.18-1.078-0.676-1.834-1.484-2.264c-0.559-0.3-1.219-0.449-1.984-0.449c-1.115,0-2.021,0.39-2.725,1.168
	c-0.738,0.816-1.109,1.918-1.109,3.3c0,1.389,0.379,2.479,1.135,3.272c0.692,0.635,1.521,0.949,2.482,0.949
	c0.744,0,1.359-0.141,1.842-0.416c0.289-0.161,0.617-0.449,0.989-0.865l0.271,1.062h0.721v-4.419h-3.627v0.929H199.787z"/>
<path fill="#014D85" d="M212.252,37.986h-3.694v8.259h1.117v-3.492h2.579c0.825,0,1.438-0.239,1.841-0.716
	c0.4-0.479,0.602-1.039,0.602-1.686c0-0.75-0.226-1.33-0.674-1.744C213.574,38.193,212.982,37.986,212.252,37.986 M213.101,41.488
	c-0.312,0.214-0.717,0.318-1.215,0.318h-2.211v-2.859h2.211c0.428,0,0.764,0.059,1.01,0.175c0.447,0.217,0.67,0.63,0.67,1.235
	C213.566,40.896,213.413,41.275,213.101,41.488"/>
<path fill="#014D85" d="M218.402,40.048c-0.858,0-1.545,0.3-2.053,0.897c-0.512,0.602-0.767,1.404-0.767,2.416
	c0,0.943,0.243,1.695,0.726,2.256c0.483,0.56,1.137,0.841,1.961,0.841c0.984,0,1.713-0.317,2.184-0.95
	c0.468-0.633,0.701-1.434,0.701-2.404c0-1.004-0.267-1.763-0.797-2.279C219.826,40.307,219.173,40.048,218.402,40.048
	 M219.728,44.826c-0.246,0.507-0.699,0.76-1.363,0.76c-0.604,0-1.045-0.212-1.323-0.641c-0.278-0.428-0.417-0.959-0.417-1.601
	c0-0.665,0.139-1.233,0.417-1.706c0.278-0.472,0.724-0.709,1.334-0.709c0.688,0,1.176,0.278,1.457,0.832
	c0.178,0.353,0.267,0.809,0.267,1.371C220.097,43.754,219.976,44.318,219.728,44.826"/>
<path fill="#014D85" d="M225.027,40.088c-0.399,0-0.754,0.146-1.062,0.436c-0.31,0.291-0.501,0.537-0.58,0.74v-1.041h-0.961v6.021
	h1.013V42.78c0-0.427,0.137-0.804,0.409-1.132c0.274-0.33,0.665-0.493,1.177-0.493c0.061,0,0.114,0.003,0.166,0.007
	c0.049,0.004,0.104,0.012,0.164,0.023v-1.069c-0.106-0.011-0.184-0.019-0.229-0.021C225.078,40.089,225.048,40.088,225.027,40.088"
	/>
<path fill="#014D85" d="M227.457,38.542h-1.021v1.681h-0.815v0.826h0.815v3.986c0,0.385,0.084,0.699,0.252,0.939
	c0.168,0.242,0.488,0.364,0.961,0.364c0.146,0,0.283-0.009,0.408-0.024c0.127-0.014,0.246-0.039,0.361-0.07v-0.807
	c-0.074,0.012-0.141,0.019-0.195,0.021c-0.057,0.002-0.109,0.004-0.158,0.004c-0.184,0-0.313-0.021-0.394-0.063
	c-0.144-0.069-0.214-0.211-0.214-0.42v-3.93h0.961v-0.826h-0.961V38.542z"/>
<path fill="#014D85" d="M233.5,43.282c-0.252-0.166-0.749-0.337-1.489-0.515l-0.682-0.162c-0.299-0.069-0.523-0.151-0.676-0.246
	c-0.268-0.156-0.397-0.365-0.397-0.629c0-0.236,0.101-0.43,0.304-0.575c0.2-0.146,0.496-0.22,0.889-0.22
	c0.587,0,0.998,0.133,1.238,0.397c0.145,0.187,0.227,0.394,0.246,0.621h0.954c0.009-0.392-0.114-0.754-0.368-1.091
	c-0.406-0.532-1.07-0.799-1.99-0.799c-0.701,0-1.26,0.177-1.676,0.527c-0.416,0.354-0.623,0.814-0.623,1.385
	c0,0.482,0.219,0.86,0.66,1.135c0.247,0.156,0.633,0.301,1.154,0.428l0.816,0.202c0.438,0.108,0.73,0.204,0.881,0.286
	c0.23,0.136,0.348,0.332,0.348,0.592c0,0.341-0.146,0.592-0.438,0.756c-0.291,0.162-0.627,0.244-1.008,0.244
	c-0.645,0-1.097-0.163-1.354-0.488c-0.142-0.181-0.228-0.438-0.259-0.777h-0.973c0.026,0.601,0.229,1.104,0.606,1.512
	c0.377,0.406,1.021,0.607,1.927,0.607c0.844,0,1.469-0.192,1.881-0.584c0.411-0.389,0.618-0.853,0.618-1.388
	C234.091,43.945,233.894,43.54,233.5,43.282"/>
<polygon fill="#014D85" points="239.64,37.986 238.519,37.986 238.519,46.245 243.781,46.245 243.781,45.259 239.64,45.259 "/>
<rect x="244.788" y="37.986" fill="#014D85" width="1.028" height="1.146"/>
<rect x="244.788" y="40.25" fill="#014D85" width="1.028" height="5.994"/>
<path fill="#014D85" d="M253.558,40.088c-0.379,0-0.72,0.077-1.021,0.232c-0.306,0.156-0.569,0.396-0.793,0.718
	c-0.138-0.265-0.286-0.463-0.451-0.597c-0.293-0.235-0.681-0.354-1.158-0.354c-0.423,0-0.803,0.113-1.136,0.343
	c-0.193,0.137-0.412,0.35-0.65,0.646v-0.854h-1.002v6.021h1.012v-3.192c0-0.775,0.156-1.312,0.472-1.607
	c0.312-0.297,0.659-0.444,1.042-0.444c0.42,0,0.707,0.142,0.859,0.423c0.098,0.186,0.146,0.482,0.146,0.893v3.931h1.028V42.74
	c0-0.621,0.145-1.064,0.431-1.331c0.286-0.265,0.63-0.399,1.024-0.399c0.289,0,0.533,0.075,0.733,0.225
	c0.202,0.15,0.302,0.427,0.302,0.828v4.183h1.051v-4.009c0-0.531-0.076-0.956-0.235-1.271
	C254.918,40.38,254.369,40.088,253.558,40.088"/>
<rect x="256.937" y="40.25" fill="#014D85" width="1.028" height="5.994"/>
<rect x="256.937" y="37.986" fill="#014D85" width="1.028" height="1.146"/>
<path fill="#014D85" d="M260.719,38.542h-1.021v1.681h-0.816v0.826h0.816v3.986c0,0.385,0.084,0.699,0.25,0.939
	c0.172,0.242,0.492,0.364,0.964,0.364c0.146,0,0.282-0.009,0.407-0.024c0.125-0.014,0.244-0.039,0.361-0.07v-0.807
	c-0.074,0.012-0.141,0.019-0.195,0.021c-0.058,0.002-0.109,0.004-0.158,0.004c-0.184,0-0.314-0.021-0.393-0.063
	c-0.144-0.069-0.216-0.211-0.216-0.42v-3.93h0.962v-0.826h-0.962V38.542z"/>
<path fill="#014D85" d="M267.726,42.23c-0.068-0.405-0.201-0.76-0.402-1.062c-0.209-0.318-0.512-0.578-0.911-0.777
	c-0.397-0.201-0.81-0.302-1.234-0.302c-0.841,0-1.522,0.302-2.045,0.904c-0.521,0.604-0.78,1.39-0.78,2.356
	c0,0.98,0.258,1.745,0.774,2.291c0.519,0.545,1.149,0.817,1.894,0.817c0.307,0,0.58-0.031,0.82-0.092
	c0.45-0.104,0.827-0.308,1.135-0.606c0.182-0.173,0.346-0.395,0.494-0.665c0.146-0.274,0.234-0.521,0.262-0.739h-0.996
	c-0.071,0.268-0.196,0.5-0.371,0.705c-0.312,0.35-0.729,0.524-1.254,0.524c-0.562,0-0.979-0.185-1.244-0.556
	c-0.268-0.37-0.411-0.86-0.43-1.473h4.379C267.816,42.949,267.786,42.507,267.726,42.23 M263.457,42.752
	c0.021-0.518,0.186-0.943,0.498-1.279c0.312-0.334,0.697-0.502,1.158-0.502c0.644,0,1.103,0.243,1.377,0.729
	c0.15,0.264,0.242,0.612,0.283,1.052H263.457z"/>
<path fill="#014D85" d="M273.015,37.957v3.041c-0.23-0.279-0.432-0.477-0.611-0.59c-0.31-0.193-0.693-0.292-1.152-0.292
	c-0.829,0-1.467,0.321-1.912,0.964c-0.445,0.645-0.669,1.402-0.669,2.279c0,0.938,0.245,1.688,0.733,2.252s1.067,0.847,1.734,0.847
	c0.414,0,0.782-0.083,1.104-0.248c0.322-0.164,0.6-0.433,0.836-0.804v0.838h0.91v-8.287H273.015z M272.605,44.97
	c-0.302,0.402-0.685,0.604-1.148,0.604c-0.602,0-1.038-0.217-1.311-0.651c-0.271-0.434-0.408-0.974-0.408-1.618
	c0-0.758,0.158-1.33,0.473-1.722c0.314-0.39,0.727-0.585,1.232-0.585c0.455,0,0.836,0.184,1.146,0.55
	c0.311,0.363,0.465,0.929,0.465,1.688C273.054,43.99,272.904,44.568,272.605,44.97"/>
<path fill="#005487" d="M8.871,48.805c0.099-0.283-0.287-0.638-0.325-0.673c-0.449-0.405-1.114-0.346-1.552-0.318
	c-0.276,0.018-1.172-0.002-2.962-0.043c-1.21-0.027-1.908-0.129-3.036,0.113c-0.654,0.141-0.876,0.271-0.959,0.472
	c-0.232,0.559,0.677,1.511,1.331,1.763c0.262,0.101,0.538,0.129,0.538,0.129c0.309,0.031,0.544-0.015,0.672-0.041
	c0.421-0.083,1.022-0.193,1.771-0.341c-0.021,0.459-0.043,0.827-0.058,1.061c-0.072,1.169-0.059,2.342-0.134,3.51
	c-0.027,0.423-0.064,0.905,0.234,1.292c0.028,0.037,0.355,0.454,0.666,0.368c0.061-0.017,0.18-0.067,0.312-0.311
	c0.259-0.478,0.183-0.998,0.171-1.084c-0.157-1.102-0.042-2.225-0.072-3.337c-0.012-0.414-0.017-1.02,0.021-1.761
	c0.524-0.211,0.965-0.282,1.281-0.306c0.525-0.039,1.216,0.016,1.834-0.258C8.688,49.004,8.825,48.938,8.871,48.805z"/>
<path fill="#005487" d="M30.344,50.262c0.052-0.592-0.301-1.071-0.464-1.273c-0.697-0.866-1.793-0.984-3.579-1.15
	c-1.623-0.151-2.773-0.223-3.071,0.366c-0.273,0.54,0.255,1.476,0.649,1.703c0.064,0.038,0.164,0.096,0.303,0.103
	c0.168,0.011,0.269-0.06,0.566-0.165c0.134-0.047,0.246-0.078,0.318-0.098c-0.706,1.76-0.79,3.191-0.75,4.122
	c0.016,0.352,0.093,2.265,0.69,2.368c0.187,0.033,0.391-0.092,0.494-0.217c0.198-0.238,0.118-0.577,0.063-0.951
	c-0.056-0.379-0.103-0.904-0.069-1.564c0.242-0.08,0.574-0.196,0.961-0.353C28.041,52.506,30.226,51.617,30.344,50.262z
	 M27.487,51.48c-0.741,0.653-1.516,0.959-2.016,1.109c0.141-0.955,0.259-1.421,0.343-1.672c0.035-0.103,0.067-0.209,0.104-0.312
	c0.148-0.427,0.213-0.521,0.205-0.694c-0.003-0.065-0.019-0.158-0.072-0.269c1.275-0.207,2.28-0.085,2.439,0.348
	C28.66,50.448,27.844,51.166,27.487,51.48z"/>
<path fill="#005487" d="M20.808,53.092c-0.083-0.027-0.168,0.019-0.21,0.044c-0.295,0.179-1.644,1.251-1.919,1.454
	c-0.847,0.627-2.107,0.849-2.574,0.385c-0.13-0.128-0.182-0.293-0.205-0.424c0.522-0.208,1.385-0.652,1.945-1.547
	c0.217-0.347,0.492-0.803,0.347-1.303c-0.014-0.049-0.146-0.478-0.562-0.681c-0.418-0.204-0.849-0.048-1.017,0.013
	c-1.231,0.446-1.615,2.149-1.676,2.417c-0.063,0.281-0.086,0.515-0.096,0.662c-0.078,0.061-0.192,0.138-0.343,0.202
	c-0.181,0.076-0.399,0.17-0.548,0.119c-0.394-0.134-0.447-1.339-0.5-2.163c-0.019-0.295-0.035-0.657-0.29-0.843
	c-0.142-0.104-0.301-0.106-0.392-0.113c-0.225-0.016-0.531,0.042-1.167,0.584c-0.286,0.244-0.622,0.572-1.083,1.157
	c-0.191,0.244-0.443,0.582-0.718,1.004c0.107-0.641,0.208-1.151,0.273-1.474c0.241-1.195,0.306-2.423,0.565-3.614
	c0.011-0.052,0.045-0.2-0.006-0.371c-0.053-0.178-0.168-0.287-0.261-0.372c-0.09-0.083-0.333-0.307-0.68-0.322
	c-0.071-0.002-0.346-0.015-0.442,0.142c-0.006,0.011-0.011,0.021-0.015,0.031c-0.055,0.15,0.005,0.299,0.015,0.326
	c0.079,0.21,0.124,2.152-0.129,3.794c-0.158,1.026-0.197,2.076-0.448,3.085c-0.022,0.089-0.096,0.374,0.053,0.585
	c0.118,0.167,0.335,0.233,0.465,0.237c0.518,0.017,0.834-0.728,1.705-2.006c0.623-0.912,1.158-1.687,1.44-1.587
	c0.149,0.053,0.116,0.308,0.316,1.412c0.18,0.988,0.343,1.229,0.553,1.37c0.218,0.147,0.46,0.143,0.582,0.14
	c0.425-0.012,0.716-0.22,1.099-0.465c0.037,0.165,0.118,0.411,0.31,0.635c0.595,0.692,1.709,0.528,1.994,0.485
	c0.588-0.086,0.978-0.318,1.57-0.672c0.321-0.19,0.698-0.514,1.45-1.159c0.413-0.355,0.83-0.731,0.75-0.979
	C20.958,53.261,20.915,53.126,20.808,53.092z M16.15,52.903c0.103-0.235,0.323-0.679,0.718-0.968
	c0.147-0.105,0.261-0.15,0.356-0.115c0.105,0.041,0.146,0.165,0.152,0.186c0.025,0.085,0.035,0.237-0.232,0.604
	c-0.153,0.211-0.379,0.466-0.767,0.76c-0.19,0.145-0.357,0.25-0.476,0.321C15.97,53.355,16.068,53.089,16.15,52.903z"/>
<path fill="#005487" d="M41.487,54.885c-0.049-0.052-0.27,0.049-0.646,0.17c-0.137,0.044-0.205,0.059-0.261,0.023
	c-0.125-0.08-0.089-0.348-0.072-0.472c0.177-1.306,0.266-1.958,0.268-1.968c0.043-0.211,0.104-0.524,0.173-0.911
	c0.139-0.018,0.339-0.049,0.577-0.098c0.227-0.047,0.342-0.071,0.432-0.115c0.065-0.032,0.385-0.198,0.502-0.56
	c0.043-0.137,0.08-0.251,0.023-0.339c-0.059-0.09-0.193-0.122-0.956-0.077c-0.185,0.011-0.337,0.022-0.438,0.031
	c0.042-0.199,0.097-0.459,0.164-0.764c0.066-0.303,0.124-0.561,0.187-0.902c0.083-0.446,0.124-0.673,0.087-0.787
	c-0.164-0.498-0.847-0.638-0.939-0.656c-0.166-0.034-0.547-0.111-0.686,0.092c-0.097,0.141-0.027,0.346,0,0.414
	c0.021,0.143,0.044,0.341,0.061,0.577c0.042,0.619,0.001,1.097-0.018,1.296c-0.023,0.226-0.062,0.515-0.136,0.848
	c-0.081,0.01-0.199,0.024-0.341,0.045c-0.561,0.083-0.667,0.143-0.737,0.196c-0.066,0.053-0.166,0.153-0.233,0.346
	c-0.074,0.007-0.13,0.013-0.144,0.015c0,0-0.427,0.043-0.77,0.107c-0.379,0.07-1.425,0.267-1.768,0.946
	c-0.06,0.119-0.141,0.312-0.137,0.298c0.071-0.282,0.094-0.515,0.099-0.677c0.005-0.128,0-0.192-0.027-0.263
	c-0.056-0.163-0.2-0.317-0.395-0.369c-0.167-0.045-0.308,0.002-0.38,0.029c-0.158,0.058-0.257,0.146-0.291,0.175
	c-0.339,0.29-0.862,0.328-0.974,0.337c-0.131,0.012-0.536,0.038-0.939-0.173c-0.358-0.188-0.392-0.396-0.79-0.538
	c-0.085-0.03-0.289-0.104-0.536-0.084c-0.341,0.03-0.653,0.241-0.944,0.515c-0.368,0.348-0.671,0.767-0.954,1.346
	c-0.42,0.859-0.723,1.479-0.531,2.182c0.04,0.148,0.181,0.667,0.646,0.939c0.183,0.107,0.351,0.138,0.483,0.16
	c0.587,0.102,1.077-0.128,1.309-0.237c1.07-0.506,1.48-1.521,1.505-1.589c0.313-0.81,0.164-1.526,0.095-1.789
	c0.131,0.055,0.24,0.071,0.306,0.078c0.385,0.035,0.716-0.161,1.06-0.364c0.075-0.044,0.132-0.081,0.167-0.104
	c0.048,0.665,0.037,1.203,0.016,1.585c-0.029,0.528,0.037,1.058,0.051,1.586c0.002,0.079,0.004,0.275,0.125,0.464
	c0.145,0.226,0.446,0.419,0.659,0.344c0.082-0.029,0.424-0.11,0.333-0.795c-0.051-0.388-0.072-1.048,0.266-1.717
	c0.151-0.299,0.298-0.504,0.427-0.655c0.553-0.647,1.293-0.952,1.953-1.224c0.09-0.037,0.166-0.066,0.215-0.085
	c0.04,0.058,0.114,0.145,0.231,0.19c0.068,0.026,0.132,0.03,0.381,0.013c0.094-0.006,0.219-0.016,0.366-0.032
	c-0.061,0.671-0.13,1.212-0.183,1.586c0,0-0.072,0.501-0.096,1.911c-0.001,0.109-0.003,0.347,0.144,0.567
	c0.037,0.057,0.162,0.24,0.395,0.312c0.298,0.094,0.57-0.062,0.695-0.135c0.184-0.106,0.306-0.259,0.532-0.566
	C41.326,55.259,41.552,54.952,41.487,54.885z M31.977,54.237c-0.111,0.183-0.224,0.306-0.305,0.392
	c-0.208,0.224-0.44,0.476-0.806,0.566c-0.138,0.035-0.452,0.113-0.644-0.056c-0.185-0.163-0.159-0.469-0.129-0.735
	c0.019-0.169,0.058-0.345,0.201-0.723c0.142-0.376,0.382-0.745,0.864-1.483c0.014-0.022,0.049-0.074,0.101-0.078
	c0.056-0.004,0.095,0.051,0.133,0.087c0.13,0.125,0.279,0.062,0.466,0.134c0.167,0.062,0.262,0.192,0.323,0.276
	C32.517,53.077,32.209,53.854,31.977,54.237z"/>
<path fill="#005487" d="M45.479,53.509c-0.066,0.015-0.167,0.055-0.416,0.331c-0.077,0.086-0.177,0.206-0.283,0.362
	c-0.001-0.167-0.027-0.422-0.181-0.657c-0.417-0.639-1.259-0.551-1.387-1.029c-0.071-0.271,0.128-0.575,0.285-0.723
	c0.409-0.385,0.971-0.124,1.193-0.475c0.111-0.175,0.095-0.436-0.025-0.574c-0.188-0.216-0.58-0.127-0.782-0.08
	c-0.707,0.161-1.636,0.794-1.606,1.606c0.013,0.373,0.223,0.65,0.292,0.738c0.484,0.623,1.201,0.448,1.406,0.951
	c0.145,0.356-0.096,0.744-0.125,0.786c-0.294,0.438-0.889,0.511-1.058,0.531c-0.479,0.059-0.708-0.1-0.896,0.084
	c-0.134,0.131-0.188,0.374-0.096,0.53c0.086,0.146,0.263,0.173,0.495,0.204c0.245,0.033,0.514,0.026,0.843-0.048
	c0.235-0.053,0.637-0.155,1.06-0.451c0.376-0.265,0.596-0.564,0.998-1.118c0.098-0.136,0.058-0.091,0.235-0.344
	c0.274-0.391,0.377-0.506,0.333-0.581C45.723,53.479,45.56,53.491,45.479,53.509z"/>
<path fill="#E52713" d="M66.542,55.93c0.244,0.201,0.641,0.273,0.983,0.148c0.101-0.036,0.282-0.08,0.604-0.517
	c0.444-0.602,0.666-0.903,0.731-0.958c0.133-0.111,0.563-0.203,1.427-0.384c0,0,1.078-0.227,1.442-0.188
	c0.021,0.002,0.114,0.004,0.239-0.001c0.072-0.003,0.14-0.018,0.203-0.043c0.378,1.015,0.732,1.728,0.886,1.918
	c0.073,0.09,0.212,0.258,0.427,0.279c0.006,0,0.01,0.001,0.014,0.001c0.285,0.013,0.572-0.277,0.608-0.558
	c0.035-0.28-0.187-0.515-0.307-0.657c-0.214-0.251-0.427-0.854-0.854-2.056c-0.339-0.959-0.336-1.223-0.755-2.284
	c-0.083-0.212-0.157-0.386-0.205-0.499c0.033-0.185,0.072-0.465,0.064-0.807c-0.014-0.661-0.024-1.147-0.374-1.396
	c-0.378-0.268-0.987-0.172-1.333,0.12c-0.083,0.07-0.187,0.182-0.394,0.657c-0.274,0.632-0.398,1.143-0.406,1.174
	c-0.104,0.432-0.33,0.961-0.758,2.03c-0.608,1.518-0.805,1.865-0.956,2.088c-0.764,0.968-1.072,1.215-1.209,1.252
	c-0.031,0.009-0.177,0.041-0.256,0.161c-0.04,0.062-0.044,0.126-0.045,0.146C66.312,55.738,66.482,55.88,66.542,55.93z
	 M71.458,53.079c-0.401,0.093-0.507,0.091-0.883,0.183c-0.257,0.062-0.272,0.078-0.434,0.105c-0.228,0.038-0.419,0.043-0.546,0.041
	c0.198-0.317,0.409-0.643,0.635-0.973c0.333-0.485,0.665-0.938,0.993-1.355c0.116,0.284,0.23,0.589,0.34,0.914
	c0.115,0.342,0.212,0.671,0.295,0.982C71.777,52.999,71.636,53.037,71.458,53.079z"/>
<path fill="#E52713" d="M75.139,56.104c0.341,0.245,0.839,0.066,1.19-0.034c1.103-0.318,2.671-0.426,3.24-0.435
	c0.137-0.001,0.546-0.001,0.729-0.253c0.113-0.155,0.113-0.345,0.113-0.345c0-0.13-0.043-0.236-0.076-0.288
	c-0.123-0.199-0.47-0.26-1.237-0.191c-0.658,0.06-1.15,0.172-1.197,0.184c-1.002,0.232-1.584,0.519-1.738,0.312
	c-0.04-0.055-0.042-0.117-0.041-0.156c0.016-0.656,0.515-2.519,0.586-2.78c0.347-1.486,0.599-2.577,0.722-3.01
	c0.025-0.091,0.093-0.318-0.001-0.552c-0.06-0.151-0.165-0.234-0.325-0.371c-0.26-0.22-0.498-0.425-0.816-0.414
	c-0.03,0.002-0.382,0.019-0.515,0.254c-0.057,0.101-0.043,0.196-0.016,0.436c0.027,0.229,0.034,0.461,0.076,0.688
	c0.083,0.439,0.016,0.92-0.059,1.459c-0.173,1.243-0.783,3.601-0.928,4.159c-0.042,0.161-0.165,0.635,0.059,1.053
	C74.941,55.886,75.01,56.012,75.139,56.104z"/>
<path fill="#E52713" d="M81.403,55.864c0.341,0.244,0.838,0.066,1.19-0.034c1.103-0.318,2.67-0.427,3.24-0.435
	c0.136-0.002,0.546-0.002,0.729-0.253c0.113-0.155,0.113-0.346,0.113-0.346c0.001-0.13-0.043-0.235-0.076-0.288
	c-0.123-0.198-0.471-0.259-1.237-0.19c-0.659,0.06-1.149,0.171-1.197,0.183c-1.002,0.232-1.584,0.52-1.739,0.312
	c-0.041-0.054-0.042-0.116-0.041-0.155c0.016-0.656,0.516-2.52,0.586-2.78c0.348-1.486,0.6-2.577,0.723-3.011
	c0.026-0.09,0.093-0.318-0.001-0.551c-0.06-0.151-0.164-0.234-0.326-0.371c-0.26-0.221-0.496-0.426-0.815-0.414
	c-0.03,0.002-0.382,0.018-0.515,0.254c-0.057,0.101-0.043,0.195-0.015,0.435c0.027,0.229,0.034,0.462,0.077,0.688
	c0.083,0.439,0.016,0.92-0.059,1.458c-0.172,1.243-0.783,3.601-0.928,4.16c-0.042,0.16-0.165,0.634,0.058,1.053
	C81.204,55.646,81.273,55.771,81.403,55.864z"/>
<path fill="#005487" d="M63.126,57.946c5.739,2.049,10.528,2.835,13.828,3.164c3.436,0.342,5.451,0.209,7.004-0.009
	c3.271-0.459,5.857-1.478,7.576-2.307c-1.073,0.336-2.494,0.722-4.189,1.02c-1.825,0.321-4.386,0.631-8.397,0.467
	C72.399,60.014,66.15,58.666,63.126,57.946z"/>
<path fill="#005487" d="M62.208,59.426c-0.944-0.229-2.635-0.627-4.84-0.628c-3.137,0-5.446,0.809-5.942,0.987
	c-1.792,0.647-3.146,1.49-4.032,2.128c4.546-1.953,8.13-2.123,10.602-1.896c2.6,0.237,3.965,0.914,8.229,1.741
	c3.481,0.676,6.376,0.963,8.299,1.1c-1.684-0.331-3.056-0.667-4.013-0.917c-1.822-0.477-3.393-0.973-5.084-1.505
	C62.986,59.667,63.045,59.629,62.208,59.426z"/>
<path fill="#005487" d="M89.81,54.213c0.292,0.039,0.581-0.253,0.627-0.524c0.032-0.186-0.067-0.271-0.138-0.569
	c-0.07-0.293-0.046-0.528-0.034-0.701c0.016-0.215,0.138-0.609,0.29-0.979c-0.601,0.736-1.056,1.078-1.21,1.756
	c-0.042,0.19-0.03,0.514,0.074,0.706C89.442,53.942,89.572,54.183,89.81,54.213z"/>
<path fill="#005487" d="M97.613,51.226c-1.088-1.465-3.497-2.179-5.391-1.238c-1.416,0.702-1.867,2.66-1.63,3.157
	c0.42-1.078,1.403-1.787,2.468-1.798c0.806-0.01,1.664,0.381,2.094,1.076c0.841,1.361-0.338,3.273-0.754,3.947
	c-0.682,1.106-1.803,2.269-4.251,3.417c-3.178,1.491-6.076,1.777-7.726,1.877c-1.278,0.076-6.031,0.286-13.319-1.554
	c-5.462-1.379-6.469-2.426-9.967-2.392c-3.116,0.03-5.673,0.895-7.394,1.652l0,0c0.422-0.147,1.035-0.342,1.788-0.512
	c2.634-0.597,4.948-0.433,6.976-0.107c3.014,0.483,3.523,1.023,7.721,2.226c2.595,0.743,5.723,1.621,9.621,2.019
	c2.208,0.227,4.708,0.478,7.89,0.016c3.252-0.472,8.066-1.17,10.696-4.872C96.592,57.917,99.492,53.758,97.613,51.226z"/>
<path fill="#005487" d="M64.577,51.313c-0.003-0.016-0.011-0.029-0.029-0.047c-0.095-0.096-0.712-0.023-0.765-0.019
	c-0.348,0.032-0.731,0.071-1.226,0.228c-0.44,0.113-1.03,0.34-1.342,0.854c-0.075,0.121-0.115,0.23-0.137,0.298
	c0.072-0.283,0.094-0.516,0.099-0.678c0.005-0.128-0.001-0.192-0.026-0.263c-0.057-0.163-0.201-0.317-0.396-0.369
	c-0.167-0.044-0.308,0.003-0.38,0.029c-0.157,0.059-0.256,0.147-0.29,0.175c-0.34,0.29-0.863,0.328-0.975,0.338
	c-0.146,0.013-0.567,0.047-0.939-0.175c-0.054-0.032-0.294-0.182-0.568-0.391c-0.089-0.066-0.135-0.106-0.222-0.146
	c-0.232-0.11-0.455-0.09-0.536-0.083c-0.341,0.029-0.653,0.24-0.944,0.515c-0.368,0.346-0.67,0.766-0.953,1.345
	c-0.42,0.859-0.723,1.479-0.531,2.182c0.041,0.149,0.181,0.668,0.646,0.939c0.184,0.107,0.351,0.138,0.483,0.16
	c0.587,0.101,1.077-0.128,1.31-0.238c1.069-0.504,1.479-1.52,1.505-1.588c0.313-0.81,0.163-1.526,0.094-1.789
	c0.131,0.055,0.239,0.072,0.306,0.077c0.384,0.035,0.717-0.16,1.06-0.363c0.075-0.043,0.133-0.081,0.167-0.104
	c0.046,0.665,0.036,1.204,0.015,1.585c-0.029,0.528,0.037,1.057,0.051,1.586c0.002,0.079,0.004,0.275,0.125,0.463
	c0.145,0.227,0.446,0.419,0.659,0.345c0.083-0.028,0.423-0.11,0.333-0.795c-0.051-0.387-0.072-1.047,0.265-1.717
	c0.151-0.298,0.316-0.521,0.427-0.654c0.299-0.36,0.6-0.568,0.703-0.638c0.329-0.219,0.438-0.198,1.466-0.671
	C64.257,51.603,64.599,51.44,64.577,51.313z M57.374,54.224c-0.111,0.183-0.224,0.306-0.304,0.393
	c-0.208,0.224-0.441,0.475-0.807,0.566c-0.138,0.034-0.451,0.112-0.644-0.057c-0.185-0.163-0.16-0.468-0.128-0.735
	c0.019-0.17,0.058-0.344,0.2-0.722c0.142-0.376,0.382-0.745,0.864-1.484c0.014-0.022,0.049-0.074,0.101-0.078
	c0.055-0.004,0.095,0.051,0.132,0.087c0.13,0.125,0.28,0.062,0.467,0.134c0.166,0.062,0.261,0.191,0.323,0.276
	C57.914,53.063,57.607,53.841,57.374,54.224z"/>
<path fill="#005487" d="M55.392,51.686c-0.035,0-0.067,0.002-0.096,0.003c-0.03,0.002-0.061,0.005-0.09,0.01
	c-0.208,0.038-0.405,0.072-0.594,0.1c-0.189,0.026-0.375,0.049-0.559,0.066c-0.184,0.019-0.368,0.029-0.552,0.038
	c-0.185,0.008-0.379,0.011-0.582,0.011c-0.121,0-0.24,0-0.356-0.002s-0.221-0.007-0.313-0.015c-0.091-0.008-0.165-0.019-0.219-0.032
	c-0.055-0.014-0.082-0.031-0.082-0.056v-0.233c0.016-0.172,0.043-0.369,0.082-0.593c0.04-0.225,0.084-0.449,0.134-0.674
	c0.051-0.223,0.106-0.434,0.164-0.631c0.058-0.196,0.113-0.35,0.164-0.459c0.043-0.09,0.091-0.184,0.146-0.281
	c0.055-0.097,0.11-0.187,0.167-0.269c0.056-0.081,0.111-0.15,0.167-0.205c0.055-0.055,0.101-0.081,0.141-0.081
	c0.059,0,0.106,0.036,0.146,0.107c0.039,0.073,0.07,0.158,0.093,0.255c0.024,0.098,0.039,0.197,0.048,0.301
	c0.008,0.104,0.012,0.187,0.012,0.249c0,0.141-0.012,0.294-0.036,0.462c-0.024,0.167-0.061,0.347-0.111,0.538h0.105
	c0.23,0,0.439-0.145,0.625-0.433c0.3-0.444,0.45-0.862,0.45-1.252c0-0.319-0.128-0.602-0.385-0.848
	c-0.23-0.229-0.521-0.345-0.871-0.345c-0.168,0-0.334,0.036-0.497,0.108c-0.165,0.071-0.32,0.167-0.466,0.282
	c-0.145,0.118-0.278,0.249-0.397,0.393c-0.119,0.145-0.219,0.287-0.301,0.427c-0.102,0.176-0.185,0.344-0.251,0.503
	c-0.066,0.16-0.123,0.322-0.167,0.488c-0.046,0.166-0.083,0.34-0.114,0.523s-0.064,0.386-0.1,0.608
	c-0.023,0.152-0.04,0.278-0.05,0.38s-0.024,0.195-0.043,0.28c-0.02,0.086-0.053,0.171-0.099,0.254
	c-0.038,0.067-0.097,0.149-0.166,0.24c-0.072,0.005-0.141,0.007-0.215,0.013c-0.202,0.017-0.392,0.038-0.567,0.063
	c-0.177,0.024-0.332,0.053-0.466,0.083c-0.037,0.008-0.121,0.029-0.288,0.08c-0.426,0.13-0.639,0.197-0.674,0.295
	c-0.051,0.143,0.072,0.33,0.176,0.422c0.147,0.128,0.326,0.126,0.534,0.124c0.169-0.002,0.175-0.029,0.458-0.061
	c0.136-0.016,0.351-0.045,0.54-0.03c0.171,0.014,0.293,0.06,0.397,0.112c0.004,0.004,0.008,0.009,0.012,0.013
	c0.039,0.039,0.058,0.072,0.058,0.1c0,0.073-0.002,0.156-0.008,0.248c-0.006,0.091-0.014,0.184-0.024,0.277s-0.02,0.182-0.029,0.264
	c-0.01,0.081-0.019,0.149-0.027,0.204c-0.015,0.226-0.037,0.449-0.064,0.67s-0.059,0.443-0.093,0.669
	c-0.035,0.227-0.074,0.458-0.114,0.696c-0.041,0.237-0.087,0.487-0.138,0.748c-0.023,0.125-0.05,0.253-0.082,0.384
	c-0.031,0.13-0.065,0.254-0.102,0.371c-0.038,0.116-0.081,0.222-0.129,0.315c-0.049,0.094-0.105,0.164-0.172,0.211
	c-0.031,0-0.067-0.004-0.108-0.01c-0.042-0.005-0.082-0.013-0.123-0.022c-0.041-0.01-0.079-0.018-0.116-0.024
	c-0.038-0.006-0.067-0.008-0.091-0.008c-0.083,0-0.156,0.027-0.222,0.085c-0.066,0.056-0.125,0.123-0.175,0.2
	c-0.051,0.079-0.09,0.162-0.118,0.249c-0.026,0.088-0.042,0.163-0.042,0.226c0,0.066,0.024,0.133,0.071,0.198
	c0.046,0.067,0.108,0.126,0.184,0.179c0.076,0.053,0.162,0.096,0.257,0.129c0.095,0.033,0.189,0.05,0.283,0.05
	c0.424,0,0.789-0.17,1.093-0.509c0.149-0.168,0.28-0.343,0.395-0.523c0.115-0.181,0.21-0.371,0.283-0.57
	c0.06-0.155,0.112-0.35,0.158-0.578c0.047-0.23,0.088-0.452,0.122-0.667c0.017-0.093,0.037-0.234,0.062-0.424
	c0.026-0.188,0.054-0.401,0.087-0.638c0.033-0.235,0.067-0.483,0.099-0.741c0.034-0.261,0.064-0.507,0.094-0.737
	c0.029-0.232,0.055-0.439,0.079-0.62c0.023-0.182,0.04-0.311,0.047-0.389c0.105,0,0.203-0.003,0.292-0.01
	c0.09-0.005,0.185-0.013,0.286-0.022c0.102-0.01,0.216-0.021,0.342-0.035s0.278-0.028,0.453-0.044
	c0.199-0.02,0.403-0.045,0.611-0.076c0.209-0.031,0.404-0.065,0.585-0.102c0.181-0.038,0.34-0.075,0.476-0.114
	c0.138-0.04,0.235-0.072,0.293-0.101c0.058-0.03,0.117-0.072,0.178-0.125c0.06-0.053,0.114-0.108,0.16-0.167
	c0.047-0.059,0.086-0.115,0.118-0.172c0.031-0.058,0.046-0.104,0.046-0.144C55.685,51.764,55.587,51.686,55.392,51.686z"/>
<path fill="#005487" d="M63.353,14.51h4.354v-2.06h-4.511c-4.585,0-6.225,2.01-6.225,4.723c0,2.717,1.43,4.725,6.225,4.725h4.511
	v-2.058h-4.474c-2.237,0-2.613-1.148-2.613-2.667C60.62,15.658,61.015,14.51,63.353,14.51"/>
<path fill="#005487" d="M75.446,12.158h-0.019c-4.587,0-6.483,2.174-6.483,5.015c0,2.847,1.688,5.019,6.483,5.019h0.019
	c4.585,0,6.481-2.172,6.481-5.019C81.928,14.33,80.242,12.158,75.446,12.158 M75.667,20.082h-0.462
	c-2.235,0-2.613-1.391-2.613-2.909c0-1.515,0.273-2.904,2.613-2.904h0.462c2.235,0,2.614,1.604,2.614,2.904
	C78.281,18.477,78.008,20.082,75.667,20.082"/>
<path fill="#005487" d="M25.587,14.51h4.354v-2.06h-4.511c-4.586,0-6.224,2.01-6.224,4.723c0,2.717,1.428,4.725,6.224,4.725h4.511
	v-2.058h-4.476c-2.234,0-2.611-1.148-2.611-2.667C22.853,15.658,23.247,14.51,25.587,14.51"/>
<path fill="#005487" d="M37.68,12.158h-0.019c-4.587,0-6.483,2.174-6.483,5.015c0,2.847,1.687,5.019,6.483,5.019h0.019
	c4.584,0,6.483-2.172,6.483-5.019C44.163,14.33,42.475,12.158,37.68,12.158 M37.903,20.082h-0.464c-2.236,0-2.613-1.391-2.613-2.909
	c0-1.515,0.272-2.904,2.613-2.904h0.464c2.233,0,2.611,1.604,2.611,2.904C40.514,18.477,40.243,20.082,37.903,20.082"/>
<path fill="#005487" d="M50.744,18.101c0.922,0,1.158,0.292,1.158,0.87c0,0.581-0.235,0.868-1.158,0.868h-4.946v2.058h6.462
	c1.441,0,3.473-0.783,3.473-2.833c0-2.047-2.031-2.816-3.473-2.816h-2.126c-0.923,0-1.161-0.288-1.161-0.866
	c0-0.58,0.238-0.873,1.161-0.873h5.043v-2.06h-6.305c-1.439,0-3.473,0.785-3.473,2.834c0,2.048,2.034,2.817,3.473,2.817H50.744z"/>
<path fill="#005487" d="M25.456,27.423c0.538,0,0.677,0.17,0.677,0.512c0,0.341-0.139,0.509-0.677,0.509h-3.258v1.211h4.147
	c0.844,0,2.04-0.461,2.04-1.665c0-1.205-1.195-1.654-2.04-1.654h-1.6c-0.54,0-0.679-0.17-0.679-0.511
	c0-0.34,0.139-0.512,0.679-0.512h3.311v-1.21h-4.052c-0.847,0-2.039,0.46-2.039,1.665c0,1.203,1.192,1.655,2.039,1.655H25.456z"/>
<path fill="#005487" d="M70.662,24.103v5.552h-0.99c-0.946,0-1.427-0.194-1.802-0.783c-0.45-0.705-1.437-2.143-1.437-2.143v2.925
	h-1.979v-5.552h0.989c0.901,0,1.308,0.221,1.615,0.711c0.499,0.792,1.633,2.532,1.633,2.532v-3.244H70.662z"/>
<path fill="#005487" d="M54.962,24.103h-3.185v5.552h1.976v-1.75h1.209c2.383,0,3.098-0.674,3.098-1.901
	S57.456,24.103,54.962,24.103 M54.898,26.8h-1.145v-1.592h1.145c0.808,0,1.078,0.23,1.078,0.796
	C55.976,26.568,55.731,26.8,54.898,26.8"/>
<path fill="#005487" d="M46.739,24.103h-3.185v5.552h1.979v-1.75h1.206c2.385,0,3.101-0.674,3.101-1.901
	S49.234,24.103,46.739,24.103 M46.675,26.8h-1.142v-1.592h1.142c0.809,0,1.079,0.23,1.079,0.796
	C47.753,26.568,47.509,26.8,46.675,26.8"/>
<rect x="59.975" y="24.103" fill="#005487" width="1.979" height="5.552"/>
<rect x="39.162" y="24.103" fill="#005487" width="1.977" height="5.552"/>
<polygon fill="#005487" points="34.75,24.103 34.75,26.234 32.489,26.234 32.489,24.103 30.484,24.103 30.484,29.655 32.489,29.655 
	32.489,27.429 34.75,27.429 34.75,29.655 36.747,29.655 36.747,24.103 "/>
<path fill="#005487" d="M76.224,25.313h2.943v-1.21H76.19c-2.694,0-3.658,1.18-3.658,2.776c0,1.595,0.841,2.776,3.658,2.776h2.977
	V26.88h-1.969v1.564h-1.045c-1.312,0-1.536-0.675-1.536-1.565C74.618,25.988,74.852,25.313,76.224,25.313"/>
<path fill="#005487" d="M59.24,31.496c-3.327,4.215-8.426,6.916-14.143,6.916c-5.719,0-10.818-2.7-14.146-6.916h-2.738
	c3.774,5.017,9.929,8.286,16.884,8.286c6.952,0,13.107-3.269,16.881-8.286H59.24z"/>
<path fill="#E52713" d="M70.182,31.496c-3.329,4.215-8.424,6.916-14.143,6.916c-5.721,0-10.817-2.7-14.147-6.916h-2.737
	c3.776,5.017,9.926,8.286,16.884,8.286c6.953,0,13.107-3.269,16.881-8.286H70.182z"/>
<path fill="#E52713" d="M40.44,10.413C43.61,5,49.407,1.372,56.04,1.372c6.629,0,12.427,3.628,15.597,9.041h2.681
	C70.796,4.213,63.933,0,56.04,0c-7.896,0-14.762,4.213-18.281,10.413H40.44z"/>
<path fill="#005487" d="M29.498,10.413C32.667,5,38.465,1.372,45.097,1.372c6.63,0,12.426,3.628,15.596,9.041h2.683
	C59.854,4.213,52.992,0,45.097,0c-7.896,0-14.761,4.213-18.281,10.413H29.498z"/>
</svg>
