<?xml version="1.0" encoding="UTF-8" standalone="no"?>
<!-- Created with Inkscape (http://www.inkscape.org/) -->
<!DOCTYPE svg PUBLIC "-//W3C//DTD SVG 1.1//EN" "http://www.w3.org/Graphics/SVG/1.1/DTD/svg11.dtd">
<svg
   xmlns:svg="http://www.w3.org/2000/svg"
   xmlns="http://www.w3.org/2000/svg"
   version="1.1"
   width="400"
   height="132"
   id="svg2816"
   xml:space="preserve"><defs
     id="defs2820" /><g
     transform="matrix(1.25,0,0,-1.25,-48.241525,846.88347)"
     id="g2826"><rect
       width="320"
       height="105.6"
       x="38.59322"
       y="-677.50677"
       transform="scale(1,-1)"
       id="rect3806"
       style="fill:#0b3d91;fill-opacity:1;fill-rule:nonzero;stroke:none" /><path
       d="m 65.787153,591.28009 -5.378144,0 0,2.58833 14.693028,0 0,-2.58833 -5.378144,0 0,-10.99807 -3.93674,0 0,10.99807"
       id="path3732"
       style="fill:white;fill-opacity:1;fill-rule:nonzero;stroke:none" /><path
       d="m 82.547745,593.86842 13.533705,0 0,-2.58833 -9.596965,0 0,-2.81771 9.110297,0 0,-2.47364 -9.110297,0 0,-3.11839 9.680659,0 0,-2.58833 -13.617399,0 0,13.5864"
       id="path3736"
       style="fill:white;fill-opacity:1;fill-rule:nonzero;stroke:none" /><path
       d="m 116.66099,588.72896 c -0.36578,1.95907 -2.08926,2.93241 -4.13823,2.93241 -3.73525,0 -4.5257,-2.74332 -4.5257,-4.5877 0,-1.84438 0.79045,-4.5877 4.5257,-4.5877 1.90638,0 3.75386,0.85865 4.13823,3.0068 l 4.28082,0 c -0.48667,-3.95533 -3.95534,-5.59513 -8.56164,-5.59513 -5.27585,0 -8.56473,2.13266 -8.56473,7.17603 0,5.04337 3.28888,7.17293 8.56473,7.17293 3.49037,0 7.93238,-0.83695 8.52134,-5.51764 l -4.24052,0"
       id="path3740"
       style="fill:white;fill-opacity:1;fill-rule:nonzero;stroke:none" /><path
       d="m 128.91758,593.86842 3.93674,0 0,-5.09916 8.15866,0 0,5.09916 3.93674,0 0,-13.5864 -3.93674,0 0,5.89891 -8.15866,0 0,-5.89891 -3.93674,0 0,13.5864"
       id="path3744"
       style="fill:white;fill-opacity:1;fill-rule:nonzero;stroke:none" /><path
       d="m 166.01282,593.86842 3.81585,0 0,-13.5864 -4.28392,0 -7.89208,9.47607 -0.0403,0 0,-9.47607 -3.81585,0 0,13.5864 4.566,0 7.60999,-9.47607 0.0403,0 0,9.47607"
       id="path3748"
       style="fill:white;fill-opacity:1;fill-rule:nonzero;stroke:none" /><path
       d="m 182.04496,587.07367 c 0,2.11096 1.25852,4.5877 4.82948,4.5877 3.57096,0 4.82948,-2.47674 4.82948,-4.5877 0,-2.11096 -1.25852,-4.5846 -4.82948,-4.5846 -3.57096,0 -4.82948,2.47364 -4.82948,4.5846 z m -4.18162,0 c 0,-2.83631 1.21822,-7.17293 9.0111,-7.17293 7.79289,0 9.0111,4.33662 9.0111,7.17293 0,2.83631 -1.21821,7.17603 -9.0111,7.17603 -7.79288,0 -9.0111,-4.33972 -9.0111,-7.17603"
       id="path3752"
       style="fill:white;fill-opacity:1;fill-rule:nonzero;stroke:none" /><path
       d="m 203.92022,593.86842 3.93674,0 0,-10.88338 8.82822,0 0,-2.70302 -12.76496,0 0,13.5864"
       id="path3756"
       style="fill:white;fill-opacity:1;fill-rule:nonzero;stroke:none" /><path
       d="m 228.02732,587.07367 c 0,2.11096 1.25852,4.5877 4.82948,4.5877 3.57096,0 4.82948,-2.47674 4.82948,-4.5877 0,-2.11096 -1.25852,-4.5846 -4.82948,-4.5846 -3.57096,0 -4.82948,2.47364 -4.82948,4.5846 z m -4.18162,0 c 0,-2.83631 1.21822,-7.17293 9.0111,-7.17293 7.79289,0 9.0111,4.33662 9.0111,7.17293 0,2.83631 -1.21821,7.17603 -9.0111,7.17603 -7.79288,0 -9.0111,-4.33972 -9.0111,-7.17603"
       id="path3760"
       style="fill:white;fill-opacity:1;fill-rule:nonzero;stroke:none" /><path
       d="m 259.07487,587.85482 7.38681,0 0,-7.5728 -1.99007,0 -0.52696,1.5778 c -1.37941,-1.38871 -3.57097,-1.95907 -6.088,-1.95907 -5.27585,0 -8.56163,2.12956 -8.56163,7.17292 0,4.20642 3.08429,7.17603 8.56163,7.17603 4.02043,0 7.81458,-1.10353 8.52444,-4.83568 l -4.38311,0 c -0.58896,1.75138 -2.27215,2.24735 -3.69496,2.24735 -3.57096,0 -4.82948,-2.47364 -4.82948,-4.5877 0,-2.11096 1.25852,-4.5846 4.82948,-4.5846 2.15126,0 3.81585,0.75945 4.28392,3.00681 l -3.51207,0 0,2.35894"
       id="path3764"
       style="fill:white;fill-opacity:1;fill-rule:nonzero;stroke:none" /><path
       d="m 275.14731,580.28202 3.93643,0 0,13.58702 -3.93643,0 0,-13.58702 z"
       id="path3766"
       style="fill:white;fill-opacity:1;fill-rule:nonzero;stroke:none" /><path
       d="m 287.93086,593.86842 13.5337,0 0,-2.58833 -9.59696,0 0,-2.81771 9.1103,0 0,-2.47364 -9.1103,0 0,-3.11839 9.68066,0 0,-2.58833 -13.6174,0 0,13.5864"
       id="path3770"
       style="fill:white;fill-opacity:1;fill-rule:nonzero;stroke:none" /><path
       d="m 319.60767,589.92858 c -0.24488,1.76998 -2.04896,1.95907 -3.63296,1.95907 -1.62429,0 -2.67822,-0.68505 -2.67822,-1.59639 0,-0.72536 0.65095,-1.12523 1.66459,-1.27712 l 4.93177,-0.74085 c 2.63793,-0.39987 4.64659,-1.33291 4.64659,-3.80655 0,-2.52943 -1.82578,-4.566 -7.5294,-4.566 -3.53066,0 -8.11836,0.41848 -8.15866,4.66209 l 4.42341,0 c 0.0403,-1.86607 2.03036,-2.18845 3.73525,-2.18845 1.84748,0 3.106,0.51147 3.106,1.69249 0,1.04773 -0.89274,1.33291 -2.45814,1.56229 l -3.58956,0.51147 c -2.51704,0.36268 -4.95348,1.06633 -4.95348,3.84375 0,3.0254 2.63793,4.26221 7.18533,4.26221 2.982,0 7.40541,-0.47426 7.66889,-4.31801 l -4.36141,0"
       id="path3774"
       style="fill:white;fill-opacity:1;fill-rule:nonzero;stroke:none" /><path
       d="m 125.6039,669.14694 13.27952,-32.27817 -29.78903,-36.11261 20.77173,0 16.12203,19.18153 7.99127,-19.18153 20.89882,0 -14.15366,35.69104 27.1201,32.69974 -20.61053,0 -13.7104,-16.03524 -7.24422,16.03524 -20.67563,0"
       id="path3778"
       style="fill:white;fill-opacity:1;fill-rule:nonzero;stroke:none" /><path
       d="m 83.291695,622.19435 -1.373209,-6.74515 28.329024,0 -3.10289,-14.50084 -48.260711,0.0434 5.461839,27.2596 -17.755626,0 3.140093,14.78292 17.743226,0 5.663326,26.39476 48.672983,0 -2.84561,-13.7135 -28.654509,-0.0186 -2.836313,-12.66266 22.560312,0 -3.18039,-14.78292 -22.479717,-0.031 -1.081828,-6.026 -7.591398,2.53253 c 1.016733,2.88591 2.045865,4.597 4.305615,6.51267 4.042133,2.72162 13.344618,2.41784 16.196429,2.50464 2.207054,0 2.628626,2.25975 -0.0434,2.30314 -2.585229,0.1178 -11.528138,-0.57036 -13.862283,2.26905 -2.994402,3.58027 -1.912574,9.60317 -0.874142,14.17847 0.331678,1.72968 -1.537499,2.26905 -2.076863,0.43087 -1.494101,-5.67573 -2.72782,-10.6075 -6.391777,-13.93668 -2.951005,-2.76502 -11.215059,-2.82391 -15.613668,-2.83321 -1.937372,-0.14259 -2.033465,-2.29075 0.430872,-2.29075 4.262218,0 10.142529,0.32548 12.563469,-1.85058 3.217587,-4.22812 1.66769,-10.22932 0.976435,-15.0371 -0.44327,-2.06757 1.404207,-2.91071 1.955971,-0.55487 0.691254,2.84561 1.590195,5.85861 2.433339,8.30435 l 7.591398,-2.53253"
       id="path3782"
       style="fill:white;fill-opacity:1;fill-rule:nonzero;stroke:none" /><path
       d="m 192.36418,669.14694 19.33342,0 -14.71783,-68.39078 -19.20323,0 14.58764,68.39078"
       id="path3786"
       style="fill:white;fill-opacity:1;fill-rule:nonzero;stroke:none" /><path
       d="m 285.04185,669.14694 -14.54424,-68.39078 56.79445,0 3.03779,14.47605 -37.60981,0 2.62553,12.81455 34.32093,0 3.17109,14.83562 -34.14734,-0.0775 2.61622,12.77116 37.22854,-0.13949 2.87661,13.71039 -56.36977,0"
       id="path3794"
       style="fill:white;fill-opacity:1;fill-rule:nonzero;stroke:none" /><path
       d="m 349.54239,664.73593 c 0,-1.67699 -1.19342,-2.80221 -2.60073,-2.80221 l 0,0.009 c -1.4445,-0.009 -2.61313,1.11593 -2.61313,2.79292 0,1.67699 1.16863,2.79292 2.61313,2.79292 1.40731,0 2.60073,-1.11593 2.60073,-2.79292 z m -3.20829,-0.30688 0.39368,0 0.90824,-1.64909 0.99193,0 -1.00433,1.71419 c 0.52076,0.0403 0.94543,0.30068 0.94543,1.02293 0,0.89584 -0.59826,1.18412 -1.60879,1.18412 l -1.4631,0 0,-3.92124 0.83694,0 0,1.64909 z m 0,0.66336 0,0.94543 0.58586,0 c 0.31928,0 0.75325,-0.031 0.75325,-0.43397 0,-0.43397 -0.22318,-0.51146 -0.59826,-0.51146 l -0.74085,0 z m 4.25912,-0.35648 c 0,2.30315 -1.72659,3.64226 -3.65156,3.64226 -1.93737,0 -3.66086,-1.33911 -3.66086,-3.64226 0,-2.30315 1.72349,-3.64226 3.66086,-3.64226 1.92497,0 3.65156,1.33911 3.65156,3.64226"
       id="path3798"
       style="fill:white;fill-opacity:1;fill-rule:nonzero;stroke:none" /><path
       d="m 253.51822,669.50678 c -19.61551,0 -34.4,-0.35 -34.4,-0.35 l -14.7,-68.4 25.8,0 c 27.57577,0 39.72518,14.46751 43.975,34.3 0.69513,4.0243 1.09274,7.75139 1.15,11.15 0.01,0.56643 0.01,1.12691 0,1.675 -0.23839,13.70225 -6.50039,21.625 -21.825,21.625 z m -17.975,-14.075 14.8,-0.175 c 9.66516,0 6.53649,-10.91863 4.875,-18.975 -1.54679,-11.55913 -5.84152,-21.05 -15.175,-21.05 l -13.1,0 3,14.75 5.6,25.45 z"
       id="rect4760"
       style="fill:white;fill-opacity:1;fill-rule:nonzero;stroke:none" /></g></svg>