<?xml version="1.0" encoding="utf-8"?><svg enable-background="new 0 0 1980 1020" viewBox="0 0 1980 1020" xmlns="http://www.w3.org/2000/svg"><path d="m0 0h1980v1020h-1980z" fill="#fff"/><g fill="#754d99"><path d="m762.6 442.1c-3.4 11.5-44.2 196.4-45 200.5-.8 4-2.7 5.7-6.7 5.7-13.8-.1-27.7-.2-41.5 0-5.1.1-6.4-3-7.3-7-6.7-31-45-205.7-57.4-262-1.8-8-1.2-8.7 6.8-8.7 13.2 0 26.3.2 39.5-.1 5.3-.1 7.2 1.8 8.2 6.8 8.9 46.5 33.7 174.4 37.1 191.8.3 1.4.9 2.8 1.7 5.3.9-2.1 1.6-3.2 1.9-4.3 12.7-62 38.9-189 39.1-190.4.7-4 2.8-6 7.2-5.9 12.3.2 24.7.2 37 0 4.6-.1 6.5 1.8 7.2 6.3 4.1 24.7 25.6 149.5 32 187.2.2 1.4.8 2.8 1.6 5.6 2.9-6.3 1 .2 43.9-195.6 1-4.4 2.7-6.6 7.6-6.4 12.8.3 25.7.1 38.5.1 6.9 0 8.1 1.6 6.5 8.5-5.4 22.6-47.7 196.4-63.3 260.7-1.8 7.5-2.5 8.1-10.1 8.1-12.7.1-25.3-.1-38 0-4.5 0-6.5-1.8-7.3-6.2-.9-4.8-36.1-194.2-38.2-200z"/><path d="m1342.7 558.4v-176c0-8.7.7-9.4 9.3-9.4h30c8.4 0 8.8.5 8.8 8.7v257.7c0 8-.5 8.6-8.4 8.6-9.3 0-18.7-.2-28 .1-4.5.1-7.7-1.5-9.8-5.4-100.8-186.6-96.5-184-101.5-186.4-.4 8.8-.3.1-.3 181.9 0 9.3-.5 9.8-9.9 9.8-10.5 0-21 0-31.5 0-5.7 0-6.7-1.1-6.7-6.8v-261.2c0-6 1-6.9 7-7 11.7-.1 23.3.2 35-.1 5.5-.2 8.8 2.1 11.1 6.7 4.9 9.6 92.3 177.9 93.1 179.3z"/><path d="m901 817.3c162.8 136.3 397.9 122.2 543.2-23.5 145.5-145.9 157.4-377.1 26.6-536.8-138.5-169.1-387.3-202.3-569.9-53.3 143.9-133.9 391.2-150.5 558.1 5.8 172.4 161.5 173.3 432.8 6.5 595.7-165.8 162-417.3 148.7-564.5 12.1z"/><path d="m1098.5 648.1c-5.2.2-7.5-2-8.7-6.8-5-19.8-10.4-39.5-15.3-59.4-1.2-5-3.2-7-8.7-7-20.6.3-41.3.3-61.9 0-4.7-.1-6.7 1.4-7.9 6-5.1 20.1-10.6 40.2-15.7 60.3-1.2 4.8-3.3 6.9-8.6 6.8-14.5-.3-29-.1-43.5-.1-6 0-7.5-2.1-5.7-7.7l83.2-258.2c2.9-9.1 2.9-9.1 12.4-9.1 13.7 0 27.3.2 41-.1 5.3-.1 7.7 1.9 9.2 6.8 15.5 48.5 71.1 220.9 83.3 258.7 2.7 8.3 1.7 9.6-7.1 9.6-31.8.2-36.7-.2-46 .2zm-62.1-211.6h-1.5c-3.1 7.5-.2 0-26.2 96.9-1.2 4.6.4 5.5 4.5 5.5 49.7-.4 39.9.6 49.7-.8z"/><path d="m403.4 638.7c-13-5.2-13.4-6.7-8.2-19.6 12.9-31.7 11.4-32.9 19.4-28.8 50.1 25.5 93.2 25.9 101.1-3.4 18.6-68.3-112.8-55.2-121.1-130.3-9.7-87.9 88.6-109.5 165.8-71.3 6.9 3.4 7 5.5 3.6 12.3-16 31.9-13.8 31.6-22.4 28.2-29.5-11.6-46.2-20.9-70.8-13.4-28.2 8.5-28.7 39.6-8.9 51.3 33.6 19.8 61.6 28.3 83 46.5 63.8 54.6 15.1 190.9-141.5 128.5z"/></g></svg>